{"title":"Don Jon 2013 HDRip XviD titler","uid":9360328,"size":756251117,"categoryP":"video","categoryS":"movies","magnet":"?xt=urn:btih:8da99be4dc5bae5fba35c218c77d3aa7fbbb7b17&amp;dn=Don+Jon+2013+HDRip+XviD+titler&amp;tr=udp%3A%2F%2Ftracker.openbittorrent.com%3A80&amp;tr=udp%3A%2F%2Fopen.demonii.com%3A1337&amp;tr=udp%3A%2F%2Ftracker.coppersurfer.tk%3A6969&amp;tr=udp%3A%2F%2Fexodus.desync.com%3A6969","seeders":0,"leechers":0,"uploader":"movieZ.freak","files":4,"time":1387302359,"description":"SOURCE: Don Jon 2013 720p WEB-DL DD5.1 h 264-fiend\n\n\n &lt;a href=&quot;\nhttp://www.imdb.com/title/tt2229499/&quot; rel=&quot;nofollow&quot; target=&quot;_NEW&quot;&gt;\nhttp://www.imdb.com/title/tt2229499/&lt;/a&gt;\n\n\n &lt;a href=&quot;\nhttp://www.rottentomatoes.com/m/don_jon/&quot; rel=&quot;nofollow&quot; target=&quot;_NEW&quot;&gt;\nhttp://www.rottentomatoes.com/m/don_jon/&lt;/a&gt;\n\n\n &lt;a href=&quot;\nhttp://en.wikipedia.org/wiki/Don_Jon&quot; rel=&quot;nofollow&quot; target=&quot;_NEW&quot;&gt;\nhttp://en.wikipedia.org/wiki/Don_Jon&lt;/a&gt;\n\n\n\n\n- SAMPLE: Yes\n\n\n- SUBTITLE: English\n\n\n- LANGUAGE / AUDIO: English\n\n\n\nSCREENSHOTS:\n---------------------- &lt;a href=&quot;\nhttp://someimage.com/XzYb&quot; rel=&quot;nofollow&quot; target=&quot;_NEW&quot;&gt;\nhttp://someimage.com/XzYb&lt;/a&gt;\n\n\n\nDIRECTOR: Joseph Gordon-Levitt\n\n\n\nCAST:\n-------------\nJoseph Gordon-Levitt, Scarlett Johansson, Julianne Moore, Tony Danza, Glenne Headly,...\n\n\nPLOT:\n-----------\nJon Martello (Joseph Gordon-Levitt) is a strong, handsome, good old fashioned guy. His buddies call him Don Jon due to his ability to &quot;pull&quot; a different woman every weekend, but even the finest fling doesn't compare to the bliss he finds alone in front of the computer watching pornography. Barbara Sugarman (Scarlett Johansson) is a bright, beautiful, good old fashioned girl. Raised on romantic Hollywood movies, she's determined to find her Prince Charming and ride off into the sunset. Wrestling with good old fashioned expectations of the opposite sex, Jon and Barbara struggle against a media culture full of false fantasies to try and find true intimacy in this unexpected comedy written and directed by Joseph Gordon-Levitt.\n\n\n***********************\n\n- Duration: 1h 30mn\n\n- Bit rate: 935 Kbps\n\n- Res: 720 x 296\n\n- AR: 2.40:1\n\n- FPS: 23.976\n\n- Audio: AC3, 128kbps\n\n************************\n\n\nGeneral\n--------------\nFormat : AVI\nFormat/Info : Audio Video Interleave\nFile size : 692 MiB\nDuration : 1h 30mn\nOverall bit rate : 1073 Kbps\nWriting library : VirtualDub build 35491\n\nVideo\n---------\nFormat : MPEG-4 Visual\nFormat profile : Advanced Simple@L5\nFormat settings, BVOP : 2\nFormat settings, QPel : No\nFormat settings, GMC : No warppoints\nFormat settings, Matrix : Default (H.263)\nCodec ID : XVID\nCodec ID/Hint : XviD\nDuration : 1h 30mn\nBit rate : 935 Kbps\nWidth : 720 pixels\nHeight : 296 pixels\nDisplay aspect ratio : 2.40:1\nFrame rate : 23.976 fps\nColor space : YUV\nChroma subsampling : 4:2:0\nBit depth : 8 bits\nScan type : Progressive\nCompression mode : Lossy\nBits/(Pixel*Frame) : 0.183\nStream size : 604 MiB (87%)\nWriting library : XviD 65\n\nAudio\n----------\nFormat : AC-3\nFormat/Info : Audio Coding 3\nMode extension : CM (complete main)\nFormat settings, Endianness : Big\nCodec ID : 2000\nDuration : 1h 30mn\nBit rate mode : Constant\nBit rate : 128 Kbps\nChannel(s) : 2 channels\nChannel positions : Front: L R\nSampling rate : 48.0 KHz\nBit depth : 16 bits\nCompression mode : Lossy\nStream size : 82.6 MiB (12%)\nAlignment : Aligned on interleaves\nInterleave, duration : 42 ms (1.00 video frame)\nInterleave, preload duration : 512 ms","torrent":{"xt":"urn:btih:8da99be4dc5bae5fba35c218c77d3aa7fbbb7b17","amp;dn":"Don+Jon+2013+HDRip+XviD+titler","amp;tr":["udp%3A%2F%2Ftracker.openbittorrent.com%3A80","udp%3A%2F%2Fopen.demonii.com%3A1337","udp%3A%2F%2Ftracker.coppersurfer.tk%3A6969","udp%3A%2F%2Fexodus.desync.com%3A6969"],"infoHash":"8da99be4dc5bae5fba35c218c77d3aa7fbbb7b17","infoHashBuffer":{"type":"Buffer","data":[141,169,155,228,220,91,174,95,186,53,194,24,199,125,58,167,251,187,123,23]},"announce":[],"urlList":[]}}